<svg width="2052" height="2052" viewBox="0 0 1539 1539" xmlns="http://www.w3.org/2000/svg" xmlns:xlink="http://www.w3.org/1999/xlink" overflow="hidden"><g stroke="none" fill="#000000" transform="matrix(0.1 0 0 -0.1 0 1539)"><path d="M2 14758C5 14203 7 14125 20 14125 33 14125 35 14201 38 14737L40 15350 653 15352C1189 15355 1265 15357 1265 15370 1265 15383 1187 15385 632 15388L0 15390 2 14758Z"/><path d="M14125 15380C14122 15375 14122 15366 14125 15360 14129 15354 14345 15350 14741 15350L15350 15350 15352 14738C15355 14201 15357 14125 15370 14125 15383 14125 15385 14203 15388 14758L15390 15390 14761 15390C14352 15390 14129 15386 14125 15380Z"/><path d="M10248 9943 10245 7065 9611 8098C9263 8666 8974 9128 8969 9123 8962 9116 7730 7114 7704 7068 7697 7055 7564 7265 7068 8073 6723 8635 6435 9103 6427 9114 6415 9131 6355 9037 5774 8092L5135 7052 5119 7079C4847 7527 3874 9109 3865 9118 3856 9128 3675 8840 3007 7753L2160 6375 2160 4473 2160 2570 7695 2570 13230 2570 13230 7695 13230 12820 11740 12820 10250 12820 10248 9943ZM12810 7695 12810 2990 7695 2990 2580 2990 2580 4625 2580 6260 3217 7295C3730 8131 3856 8329 3866 8318 3872 8311 4158 7848 4500 7290 4842 6732 5125 6271 5130 6267 5134 6262 5158 6291 5183 6332 5208 6372 5496 6840 5822 7371L6416 8337 7050 7303C7399 6734 7688 6266 7691 6264 7695 6262 7985 6728 8336 7299L8974 8337 9568 7371C9894 6840 10182 6372 10207 6333L10251 6260 10461 6260 10670 6260 10670 9330 10670 12400 11740 12400 12810 12400 12810 7695Z"/><path d="M7 1264C3 1260 0 974 0 628L0 0 633 2C1187 5 1265 7 1265 20 1265 33 1189 35 653 38L40 40 38 652C35 1241 33 1289 7 1264Z"/><path d="M15357 1264C15353 1260 15350 983 15350 648L15350 40 14738 38C14201 35 14125 33 14125 20 14125 7 14203 5 14758 2L15390 0 15388 632C15385 1240 15383 1289 15357 1264Z"/></g></svg>