<svg width="756" height="756" viewBox="0 0 567 567" xmlns="http://www.w3.org/2000/svg" xmlns:xlink="http://www.w3.org/1999/xlink" overflow="hidden"><g stroke="none" fill="#000000" transform="matrix(0.1 0 0 -0.1 0 567)"><path d="M0 5420 0 5170 25 5170 50 5170 50 5395 50 5620 275 5620 500 5620 500 5645 500 5670 250 5670 0 5670 0 5420Z"/><path d="M5160 5645 5160 5620 5385 5620 5610 5620 5610 5395 5610 5170 5640 5170 5670 5170 5670 5420 5670 5670 5415 5670 5160 5670 5160 5645Z"/><path d="M450 2840 450 1320 2830 1320 5210 1320 5210 2840 5210 4360 2830 4360 450 4360 450 2840ZM5060 2840 5060 1470 2830 1470 600 1470 600 2840 600 4210 2830 4210 5060 4210 5060 2840Z"/><path d="M1130 3060C1130 2700 1133 2510 1140 2510 1146 2510 1150 2480 1150 2440 1150 2384 1153 2370 1165 2370 1175 2370 1180 2359 1180 2335 1180 2316 1185 2300 1190 2300 1196 2300 1200 2293 1200 2285 1200 2277 1207 2270 1215 2270 1224 2270 1230 2261 1230 2245 1230 2231 1235 2220 1241 2220 1255 2220 1280 2195 1280 2181 1280 2175 1287 2170 1295 2170 1303 2170 1310 2166 1310 2160 1310 2155 1321 2150 1335 2150 1351 2150 1360 2144 1360 2135 1360 2126 1369 2120 1385 2120 1399 2120 1410 2116 1410 2110 1410 2105 1421 2100 1435 2100 1451 2100 1460 2094 1460 2085 1460 2074 1472 2070 1510 2070 1538 2070 1560 2066 1560 2060 1560 2054 1632 2050 1756 2050 1883 2050 1949 2053 1945 2060 1941 2066 1958 2070 1989 2070 2028 2070 2040 2074 2040 2085 2040 2094 2049 2100 2065 2100 2079 2100 2090 2105 2090 2110 2090 2116 2101 2120 2115 2120 2131 2120 2140 2126 2140 2135 2140 2144 2149 2150 2161 2150 2183 2150 2210 2172 2210 2189 2210 2195 2215 2200 2221 2200 2238 2200 2260 2227 2260 2249 2260 2261 2266 2270 2275 2270 2284 2270 2290 2279 2290 2295 2290 2309 2295 2320 2300 2320 2306 2320 2310 2338 2310 2360 2310 2389 2314 2400 2325 2400 2337 2400 2340 2419 2340 2515 2340 2585 2344 2630 2350 2630 2357 2630 2360 2800 2360 3120L2360 3610 2200 3610 2040 3610 2040 3040C2040 2540 2038 2470 2025 2470 2016 2470 2010 2461 2010 2449 2010 2427 1988 2400 1971 2400 1965 2400 1960 2395 1960 2389 1960 2375 1935 2350 1921 2350 1915 2350 1910 2343 1910 2335 1910 2323 1895 2320 1835 2320 1792 2320 1760 2316 1760 2310 1760 2305 1753 2300 1745 2300 1737 2300 1730 2305 1730 2310 1730 2316 1703 2320 1670 2320 1623 2320 1610 2323 1610 2335 1610 2344 1601 2350 1585 2350 1571 2350 1560 2355 1560 2360 1560 2366 1553 2370 1545 2370 1537 2370 1530 2375 1530 2381 1530 2395 1505 2420 1491 2420 1485 2420 1480 2431 1480 2445 1480 2459 1476 2470 1470 2470 1464 2470 1460 2503 1460 2550 1460 2614 1457 2630 1445 2630 1432 2630 1430 2691 1430 3120L1430 3610 1280 3610 1130 3610 1130 3060Z"/><path d="M2670 2840 2670 2070 3060 2070C3400 2070 3450 2072 3450 2085 3450 2096 3462 2100 3500 2100 3528 2100 3550 2105 3550 2110 3550 2116 3566 2120 3585 2120 3609 2120 3620 2125 3620 2135 3620 2144 3629 2150 3645 2150 3659 2150 3670 2155 3670 2160 3670 2166 3677 2170 3685 2170 3693 2170 3700 2177 3700 2185 3700 2194 3709 2200 3725 2200 3739 2200 3750 2205 3750 2210 3750 2216 3757 2220 3765 2220 3773 2220 3780 2227 3780 2235 3780 2243 3785 2250 3790 2250 3796 2250 3800 2261 3800 2275 3800 2289 3805 2300 3811 2300 3828 2300 3850 2327 3850 2349 3850 2361 3856 2370 3865 2370 3874 2370 3880 2379 3880 2395 3880 2409 3885 2420 3890 2420 3896 2420 3900 2431 3900 2445 3900 2461 3906 2470 3915 2470 3926 2470 3930 2481 3930 2510 3930 2532 3935 2550 3940 2550 3946 2550 3950 2585 3950 2635 3950 2702 3953 2722 3965 2726 3977 2731 3980 2752 3980 2831 3980 2912 3977 2930 3965 2930 3953 2930 3950 2946 3950 3015 3950 3065 3946 3100 3940 3100 3935 3100 3930 3125 3930 3155 3930 3197 3927 3210 3915 3210 3906 3210 3900 3219 3900 3235 3900 3249 3896 3260 3890 3260 3885 3260 3880 3271 3880 3285 3880 3301 3874 3310 3865 3310 3856 3310 3850 3319 3850 3331 3850 3353 3828 3380 3811 3380 3805 3380 3800 3387 3800 3395 3800 3403 3796 3410 3790 3410 3785 3410 3780 3421 3780 3435 3780 3451 3774 3460 3765 3460 3757 3460 3750 3465 3750 3470 3750 3476 3739 3480 3725 3480 3709 3480 3700 3486 3700 3495 3700 3503 3693 3510 3685 3510 3677 3510 3670 3515 3670 3520 3670 3526 3659 3530 3645 3530 3629 3530 3620 3536 3620 3545 3620 3554 3611 3560 3595 3560 3581 3560 3570 3565 3570 3570 3570 3576 3543 3580 3509 3580 3459 3580 3449 3583 3454 3595 3459 3608 3411 3610 3065 3610L2670 3610 2670 2840ZM3286 3345C3282 3333 3292 3330 3350 3330 3390 3330 3420 3326 3420 3320 3420 3315 3431 3310 3445 3310 3461 3310 3470 3304 3470 3295 3470 3286 3479 3280 3495 3280 3509 3280 3520 3276 3520 3270 3520 3265 3527 3260 3535 3260 3543 3260 3550 3253 3550 3245 3550 3237 3555 3230 3560 3230 3566 3230 3570 3219 3570 3205 3570 3189 3576 3180 3585 3180 3594 3180 3600 3171 3600 3155 3600 3141 3605 3130 3610 3130 3616 3130 3620 3102 3620 3065 3620 3014 3623 3000 3635 3000 3648 3000 3650 2976 3650 2840 3650 2704 3648 2680 3635 2680 3623 2680 3620 2666 3620 2615 3620 2578 3616 2550 3610 2550 3605 2550 3600 2532 3600 2510 3600 2488 3595 2470 3589 2470 3575 2470 3550 2445 3550 2431 3550 2425 3543 2420 3534 2420 3526 2420 3522 2416 3525 2410 3528 2405 3524 2400 3516 2400 3507 2400 3500 2393 3500 2385 3500 2376 3491 2370 3475 2370 3461 2370 3450 2366 3450 2360 3450 2355 3428 2350 3400 2350 3362 2350 3350 2346 3350 2335 3350 2322 3323 2320 3170 2320L2990 2320 2990 2840 2990 3360 3141 3360C3271 3360 3291 3358 3286 3345Z"/><path d="M4230 2840 4230 2070 4380 2070 4530 2070 4530 2840 4530 3610 4380 3610 4230 3610 4230 2840Z"/><path d="M0 255 0 0 250 0 500 0 500 30 500 60 275 60 50 60 50 285 50 510 25 510 0 510 0 255Z"/><path d="M5610 285 5610 60 5385 60 5160 60 5160 30 5160 0 5415 0 5670 0 5670 255 5670 510 5640 510 5610 510 5610 285Z"/></g></svg>