<svg width="2366.67" height="2366.67" viewBox="0 0 1775 1775" xmlns="http://www.w3.org/2000/svg" xmlns:xlink="http://www.w3.org/1999/xlink" overflow="hidden"><g stroke="none" fill="#000000" transform="matrix(0.1 0 0 -0.1 0 1775)"><path d="M2 17023C5 16384 7 16295 20 16295 33 16295 35 16381 38 17002L40 17710 748 17712C1369 17715 1455 17717 1455 17730 1455 17743 1366 17745 727 17748L0 17750 2 17023Z"/><path d="M16295 17740C16292 17735 16292 17726 16295 17720 16299 17713 16547 17710 17006 17710L17710 17710 17712 17003C17715 16381 17717 16295 17730 16295 17743 16295 17745 16384 17748 17023L17750 17750 17026 17750C16553 17750 16299 17747 16295 17740Z"/><path d="M1180 8930 1180 5690 8805 5690 16430 5690 16430 8930 16430 12170 8805 12170 1180 12170 1180 8930ZM8470 8930 8470 6290 5130 6290 1790 6290 1790 8930 1790 11570 5130 11570 8470 11570 8470 8930ZM15820 8930 15820 6290 12465 6290 9110 6290 9110 8930 9110 11570 12465 11570 15820 11570 15820 8930Z"/><path d="M5520 9669C5484 9658 5445 9646 5433 9643 5420 9640 5410 9634 5410 9629 5410 9624 5393 9613 5371 9604 5350 9596 5323 9578 5311 9564 5300 9551 5284 9540 5276 9540 5269 9540 5252 9524 5239 9505 5226 9486 5208 9468 5200 9465 5192 9462 5178 9446 5171 9428 5157 9397 5152 9389 5125 9357 5119 9350 5108 9325 5100 9300 5093 9275 5083 9251 5079 9245 5076 9240 5067 9210 5059 9180 5052 9150 5041 9122 5035 9118 5021 9108 5022 8651 5036 8642 5042 8638 5053 8610 5060 8580 5067 8550 5076 8521 5080 8515 5083 8510 5093 8485 5100 8460 5108 8435 5127 8402 5142 8385 5157 8369 5170 8350 5170 8345 5170 8339 5188 8314 5210 8290 5232 8266 5250 8242 5250 8238 5250 8234 5259 8230 5269 8230 5280 8230 5297 8218 5308 8202 5321 8185 5348 8168 5384 8156 5415 8145 5440 8133 5440 8129 5440 8120 5461 8112 5528 8094 5651 8061 6010 8088 6010 8130 6010 8134 6035 8145 6065 8155 6102 8166 6127 8181 6141 8201 6152 8217 6167 8230 6175 8230 6182 8230 6198 8245 6209 8264 6221 8282 6239 8300 6250 8303 6262 8306 6272 8320 6276 8338 6279 8354 6292 8378 6303 8392 6332 8424 6350 8456 6350 8476 6350 8498 6383 8594 6393 8598 6397 8600 6400 8610 6400 8621 6400 8640 6393 8640 6233 8638L6065 8635 6062 8610C6057 8560 6049 8540 6027 8516 6015 8502 5992 8472 5976 8450 5959 8428 5941 8410 5935 8410 5929 8410 5918 8404 5912 8398 5897 8383 5800 8362 5743 8361 5719 8360 5668 8365 5630 8372 5572 8382 5552 8390 5525 8417 5506 8435 5487 8450 5482 8450 5477 8450 5467 8464 5460 8480 5453 8497 5439 8517 5428 8524 5417 8532 5400 8574 5382 8636 5358 8725 5355 8750 5356 8890 5357 9025 5360 9056 5383 9133 5397 9182 5417 9229 5427 9238 5438 9247 5453 9270 5461 9288 5468 9305 5481 9320 5488 9320 5495 9320 5513 9333 5526 9350 5545 9372 5566 9382 5611 9392 5643 9398 5670 9408 5670 9412 5670 9416 5702 9420 5740 9420 5779 9420 5810 9416 5810 9411 5810 9406 5829 9399 5853 9395 5916 9385 5954 9365 5986 9323 6001 9302 6022 9278 6032 9268 6042 9258 6052 9238 6055 9223 6059 9207 6063 9185 6066 9173 6070 9150 6072 9150 6235 9150L6400 9150 6400 9180C6400 9197 6396 9210 6392 9210 6388 9210 6375 9245 6365 9288 6354 9332 6337 9374 6325 9385 6314 9396 6298 9419 6290 9435 6276 9464 6192 9549 6178 9550 6175 9550 6158 9564 6142 9580 6125 9597 6102 9610 6091 9610 6080 9610 6067 9616 6063 9623 6054 9638 6016 9653 5932 9676 5849 9698 5603 9694 5520 9669Z"/><path d="M3650 8885 3650 8110 4230 8110 4810 8110 4810 8250 4810 8390 4385 8390 3960 8390 3960 8590 3960 8790 4340 8790 4720 8790 4720 8930 4720 9070 4340 9070 3960 9070 3960 9225 3960 9380 4370 9380 4780 9380 4780 9520 4780 9660 4215 9660 3650 9660 3650 8885Z"/><path d="M10490 8921 10490 8150 10645 8150 10800 8150 10800 8451 10800 8752 11048 8748 11295 8744 11339 8702 11382 8661 11391 8458C11399 8247 11407 8180 11421 8180 11426 8180 11430 8173 11430 8165 11430 8152 11456 8150 11605 8150 11751 8150 11780 8152 11780 8165 11780 8172 11774 8183 11768 8187 11748 8199 11730 8237 11730 8265 11730 8279 11726 8290 11721 8290 11717 8290 11710 8374 11707 8478 11700 8751 11676 8817 11568 8861 11519 8880 11530 8894 11631 8941 11645 8948 11669 8977 11685 9007 11701 9036 11717 9060 11721 9060 11741 9060 11754 9133 11754 9245 11754 9370 11741 9432 11710 9460 11701 9468 11687 9490 11679 9508 11672 9525 11661 9540 11655 9540 11650 9540 11632 9556 11617 9575 11602 9594 11581 9610 11570 9610 11560 9610 11544 9618 11534 9627 11525 9636 11494 9653 11466 9664 11419 9682 11383 9683 10953 9687L10490 9691 10490 8921ZM11296 9405C11305 9397 11324 9390 11339 9390 11360 9390 11374 9381 11391 9355 11404 9336 11418 9320 11422 9320 11444 9320 11458 9202 11441 9145 11428 9098 11371 9040 11339 9040 11324 9040 11310 9034 11308 9028 11304 9018 11242 9014 11052 9012L10800 9009 10800 9215 10800 9420 11041 9420C11241 9420 11284 9418 11296 9405Z"/><path d="M12040 8920 12040 8150 12625 8150 13210 8150 13210 8285 13210 8420 12785 8420 12360 8420 12360 8620 12360 8820 12740 8820 13120 8820 13120 8960 13120 9100 12740 9100 12360 9100 12360 9250 12360 9400 12770 9400 13180 9400 13180 9545 13180 9690 12610 9690 12040 9690 12040 8920Z"/><path d="M13490 8920 13490 8150 13650 8150 13810 8150 13810 8425 13810 8700 14021 8700C14222 8700 14370 8713 14370 8731 14370 8736 14378 8740 14388 8740 14405 8740 14432 8752 14478 8781 14502 8795 14580 8869 14580 8876 14580 8879 14591 8898 14605 8919 14618 8941 14632 8970 14636 8984 14639 8998 14645 9010 14649 9010 14657 9010 14680 9151 14680 9200 14680 9252 14657 9390 14648 9390 14644 9390 14640 9397 14640 9405 14640 9431 14579 9540 14565 9540 14557 9540 14543 9553 14534 9570 14523 9587 14504 9602 14488 9606 14472 9609 14451 9620 14441 9631 14432 9641 14388 9659 14345 9670 14273 9688 14234 9690 13878 9690L13490 9690 13490 8920ZM14160 9411C14160 9406 14187 9399 14220 9395 14282 9388 14279 9390 14353 9300 14368 9282 14370 9113 14355 9102 14349 9098 14339 9083 14331 9068 14323 9052 14313 9040 14308 9040 14304 9040 14300 9034 14300 9027 14300 9019 14281 9005 14258 8995 14222 8980 14180 8976 14013 8972L13810 8968 13810 9194 13810 9420 13985 9420C14082 9420 14160 9416 14160 9411Z"/><path d="M7 1454C3 1450 0 1121 0 723L0 0 728 2C1366 5 1455 7 1455 20 1455 33 1369 35 748 38L40 40 38 747C35 1428 33 1480 7 1454Z"/><path d="M17717 1454C17713 1450 17710 1130 17710 743L17710 40 17003 38C16381 35 16295 33 16295 20 16295 7 16384 5 17023 2L17750 0 17748 727C17745 1428 17743 1480 17717 1454Z"/></g></svg>