<svg width="758.667" height="758.667" viewBox="0 0 569 569" xmlns="http://www.w3.org/2000/svg" xmlns:xlink="http://www.w3.org/1999/xlink" overflow="hidden"><g stroke="none" fill="#000000" transform="matrix(0.1 0 0 -0.1 0 569)"><path d="M6 5674C3 5665 0 5553 0 5424 0 5223 2 5190 15 5190 23 5190 30 5195 30 5201 30 5206 35 5208 40 5205 47 5201 50 5275 50 5419L50 5640 275 5640 500 5640 488 5665 477 5690 244 5690C42 5690 11 5688 6 5674Z"/><path d="M5200 5674C5200 5665 5195 5662 5189 5666 5182 5670 5179 5667 5182 5659 5186 5648 5230 5644 5408 5642L5630 5640 5630 5420C5630 5262 5633 5199 5642 5194 5648 5190 5656 5192 5658 5198 5660 5205 5668 5210 5676 5210 5688 5210 5690 5248 5690 5440 5690 5638 5688 5670 5675 5670 5667 5670 5660 5675 5660 5680 5660 5686 5577 5690 5430 5690 5228 5690 5200 5688 5200 5674Z"/><path d="M420 2850 420 1280 2840 1280 5260 1280 5260 2850 5260 4420 2840 4420 420 4420 420 2850ZM5120 2850 5120 1420 2840 1420 560 1420 560 2850 560 4280 2840 4280 5120 4280 5120 2850Z"/><path d="M996 3785C993 3777 984 3770 975 3770 962 3770 960 3669 960 2850L960 1930 1120 1930C1241 1930 1280 1927 1280 1918 1280 1909 1284 1910 1290 1920 1296 1929 1300 2195 1300 2619 1300 3238 1301 3302 1316 3296 1325 3293 1336 3290 1341 3290 1346 3290 1350 3265 1350 3235 1350 3193 1353 3180 1365 3180 1377 3180 1380 3167 1380 3120 1380 3073 1383 3060 1395 3060 1407 3060 1410 3047 1410 3005 1410 2963 1413 2950 1425 2950 1437 2950 1440 2937 1440 2895 1440 2853 1443 2840 1455 2840 1467 2840 1470 2827 1470 2780 1470 2733 1473 2720 1485 2720 1497 2720 1500 2707 1500 2665 1500 2635 1505 2610 1510 2610 1516 2610 1520 2590 1520 2565 1520 2534 1525 2518 1535 2514 1546 2509 1550 2492 1550 2444 1550 2394 1553 2380 1565 2380 1576 2380 1580 2368 1580 2330 1580 2294 1584 2278 1595 2274 1606 2269 1610 2253 1610 2214 1610 2173 1614 2160 1625 2160 1637 2160 1640 2147 1640 2099 1640 2049 1643 2039 1655 2044 1667 2048 1670 2039 1671 1997 1672 1968 1672 1942 1671 1938 1671 1933 1757 1930 1864 1930L2059 1930 2062 1973C2064 1997 2069 2013 2075 2010 2081 2007 2087 2035 2090 2080 2094 2133 2099 2154 2108 2152 2116 2151 2120 2167 2120 2210 2120 2257 2123 2270 2135 2270 2146 2270 2150 2282 2150 2320 2150 2348 2155 2370 2160 2370 2166 2370 2170 2395 2170 2425 2170 2467 2173 2480 2185 2480 2196 2480 2200 2492 2200 2528 2200 2554 2206 2582 2213 2589 2223 2600 2223 2602 2213 2596 2206 2592 2200 2594 2200 2599 2200 2605 2207 2610 2215 2610 2226 2610 2230 2621 2230 2650 2230 2679 2234 2690 2245 2690 2257 2690 2260 2703 2260 2750 2260 2800 2263 2810 2278 2810 2292 2810 2293 2812 2280 2820 2270 2826 2269 2830 2278 2830 2286 2830 2290 2846 2290 2875 2290 2908 2294 2920 2305 2920 2316 2920 2320 2933 2320 2974 2320 3004 2325 3032 2330 3035 2336 3038 2340 3066 2340 3096 2340 3137 2344 3150 2355 3150 2367 3150 2370 3163 2370 3210 2370 3259 2373 3268 2385 3264 2397 3259 2400 3267 2400 3304 2400 3338 2404 3350 2415 3350 2428 3350 2430 3264 2430 2640L2430 1930 2600 1930 2770 1930 2770 2850C2770 3688 2769 3770 2754 3770 2744 3770 2740 3776 2744 3785 2749 3798 2717 3800 2487 3798L2225 3796 2475 3790 2725 3784 2485 3782C2353 3781 2235 3777 2223 3774 2206 3769 2200 3760 2200 3739 2200 3720 2195 3710 2185 3710 2173 3710 2170 3697 2170 3655 2170 3625 2166 3600 2160 3600 2155 3600 2150 3582 2150 3560 2150 3531 2146 3520 2135 3520 2123 3520 2120 3507 2120 3460 2120 3413 2117 3400 2105 3400 2093 3400 2090 3387 2090 3345 2090 3303 2087 3290 2075 3290 2063 3290 2060 3277 2060 3234 2060 3188 2057 3179 2045 3184 2033 3188 2030 3178 2030 3127 2030 3089 2026 3070 2021 3079 2009 3097 2004 3084 2001 3030 2000 3005 1994 2981 1989 2975 1984 2970 1980 2942 1980 2913 1980 2873 1976 2860 1965 2860 1953 2860 1950 2847 1950 2805 1950 2763 1947 2750 1935 2750 1923 2750 1920 2737 1920 2695 1920 2653 1917 2640 1905 2640 1894 2640 1890 2628 1890 2595 1890 2568 1885 2550 1879 2550 1857 2550 1841 2585 1840 2633 1840 2660 1836 2679 1831 2676 1819 2668 1810 2695 1810 2741 1810 2769 1806 2780 1795 2780 1783 2780 1780 2793 1780 2835 1780 2877 1777 2890 1765 2890 1754 2890 1750 2903 1749 2943 1748 2971 1748 2998 1749 3002 1749 3007 1744 3009 1737 3007 1729 3006 1724 3020 1722 3048 1720 3076 1714 3090 1704 3090 1694 3090 1690 3104 1690 3145 1690 3175 1686 3200 1680 3200 1674 3200 1670 3227 1670 3260 1670 3307 1667 3320 1655 3320 1643 3320 1640 3333 1640 3376 1640 3422 1637 3431 1625 3426 1613 3422 1610 3431 1610 3476 1610 3515 1606 3532 1595 3536 1585 3540 1580 3556 1580 3586 1580 3618 1576 3630 1565 3630 1553 3630 1550 3643 1550 3685 1550 3727 1547 3740 1535 3740 1527 3740 1520 3747 1520 3755 1520 3763 1511 3770 1500 3770 1489 3770 1480 3777 1480 3785 1480 3798 1447 3800 1241 3800 1038 3800 1001 3798 996 3785Z"/><path d="M3176 3785C3168 3777 3157 3770 3151 3770 3143 3770 3140 3498 3140 2850L3140 1930 3650 1930C4097 1930 4160 1932 4160 1945 4160 1956 4171 1960 4200 1960 4229 1960 4240 1964 4240 1975 4240 1985 4250 1990 4270 1990 4287 1990 4300 1995 4300 2000 4300 2006 4311 2010 4325 2010 4341 2010 4350 2016 4350 2025 4350 2035 4360 2040 4380 2040 4400 2040 4410 2045 4410 2055 4410 2063 4417 2070 4425 2070 4433 2070 4440 2077 4440 2085 4440 2093 4447 2100 4455 2100 4463 2100 4470 2107 4470 2115 4470 2123 4477 2130 4485 2130 4493 2130 4500 2135 4500 2141 4500 2147 4507 2158 4515 2166 4523 2174 4526 2188 4523 2198 4517 2213 4518 2213 4534 2201 4543 2193 4550 2191 4549 2196 4545 2221 4552 2240 4565 2240 4575 2240 4580 2250 4580 2270 4580 2290 4585 2300 4595 2300 4604 2300 4610 2309 4610 2325 4610 2341 4616 2350 4625 2350 4635 2350 4640 2360 4640 2379 4640 2395 4646 2410 4655 2414 4666 2418 4670 2434 4670 2470 4670 2497 4675 2520 4680 2520 4686 2520 4690 2555 4690 2605 4690 2674 4693 2690 4705 2690 4718 2690 4720 2713 4720 2835 4720 2957 4718 2980 4705 2980 4693 2980 4690 2998 4690 3080 4690 3140 4686 3180 4680 3180 4675 3180 4670 3200 4670 3225 4670 3260 4667 3268 4655 3264 4643 3259 4640 3267 4640 3304 4640 3338 4636 3350 4625 3350 4616 3350 4610 3359 4610 3375 4610 3391 4604 3400 4595 3400 4585 3400 4580 3410 4580 3430 4580 3450 4575 3460 4565 3460 4557 3460 4550 3467 4550 3475 4550 3483 4543 3490 4535 3490 4526 3490 4520 3499 4520 3515 4520 3529 4516 3540 4510 3540 4505 3540 4500 3547 4500 3555 4500 3563 4493 3570 4485 3570 4477 3570 4470 3577 4470 3585 4470 3593 4463 3600 4455 3600 4447 3600 4440 3607 4440 3615 4440 3623 4433 3630 4425 3630 4417 3630 4410 3637 4410 3645 4410 3655 4400 3660 4380 3660 4364 3660 4350 3665 4350 3671 4350 3691 4321 3710 4292 3710 4275 3710 4260 3715 4258 3722 4256 3728 4234 3736 4209 3740 4183 3743 4166 3751 4167 3758 4169 3767 4137 3770 4045 3770 3941 3770 3920 3772 3920 3785 3920 3798 3873 3800 3556 3800 3245 3800 3189 3798 3176 3785ZM3758 3471C3760 3464 3812 3460 3901 3460 4018 3460 4040 3458 4040 3445 4040 3434 4051 3430 4080 3430 4107 3430 4123 3425 4126 3415 4130 3407 4138 3400 4146 3400 4154 3400 4160 3395 4160 3389 4160 3375 4185 3350 4199 3350 4205 3350 4210 3343 4210 3335 4210 3327 4217 3320 4225 3320 4235 3320 4240 3310 4240 3290 4240 3270 4245 3260 4255 3260 4265 3260 4270 3250 4270 3230 4270 3210 4275 3200 4285 3200 4295 3200 4300 3185 4302 3143 4304 3105 4309 3086 4317 3087 4326 3089 4329 3029 4330 2850 4330 2641 4329 2610 4315 2610 4303 2610 4300 2598 4300 2555 4300 2513 4297 2500 4285 2500 4274 2500 4270 2488 4270 2455 4270 2422 4266 2410 4255 2410 4247 2410 4240 2401 4240 2389 4240 2376 4236 2371 4228 2376 4219 2381 4219 2378 4229 2367 4241 2352 4240 2350 4226 2350 4217 2350 4210 2346 4210 2340 4210 2335 4203 2330 4195 2330 4187 2330 4180 2323 4180 2315 4180 2306 4171 2300 4155 2300 4139 2300 4130 2294 4130 2285 4130 2275 4120 2270 4100 2270 4080 2270 4070 2265 4070 2255 4070 2243 4051 2240 3955 2240 3859 2240 3840 2237 3840 2225 3840 2212 3816 2210 3685 2210L3530 2210 3530 2851 3530 3493 3642 3487C3707 3484 3756 3477 3758 3471Z"/><path d="M5637 494C5633 490 5630 391 5630 273L5630 60 5410 60C5219 60 5191 58 5196 45 5200 37 5197 30 5191 30 5185 30 5180 23 5180 15 5180 2 5215 0 5435 0L5690 0 5690 245C5690 387 5686 490 5681 490 5676 490 5665 492 5658 495 5650 498 5641 497 5637 494Z"/><path d="M0 245 0 0 240 0 480 0 480 30 480 60 265 60 50 60 50 275 50 490 25 490 0 490 0 245Z"/></g></svg>