<svg width="2052" height="2052" viewBox="0 0 1539 1539" xmlns="http://www.w3.org/2000/svg" xmlns:xlink="http://www.w3.org/1999/xlink" overflow="hidden"><g stroke="none" fill="#000000" transform="matrix(0.1 0 0 -0.1 0 1539)"><path d="M2 14758C5 14203 7 14125 20 14125 33 14125 35 14201 38 14737L40 15350 653 15352C1189 15355 1265 15357 1265 15370 1265 15383 1187 15385 632 15388L0 15390 2 14758Z"/><path d="M14125 15380C14122 15375 14122 15366 14125 15360 14129 15354 14345 15350 14741 15350L15350 15350 15352 14738C15355 14201 15357 14125 15370 14125 15383 14125 15385 14203 15388 14758L15390 15390 14761 15390C14352 15390 14129 15386 14125 15380Z"/><path d="M1140 7695 1140 3600 7695 3600 14250 3600 14250 7695 14250 11790 7695 11790 1140 11790 1140 7695ZM13830 7700 13830 4020 7695 4020 1560 4020 1560 7700 1560 11380 7695 11380 13830 11380 13830 7700Z"/><path d="M5610 9734C5341 9701 5075 9628 4898 9539 4649 9415 4397 9155 4316 8941 4179 8577 4267 8192 4555 7904 4693 7766 4826 7683 5021 7615 5376 7491 5893 7368 6324 7305 6439 7288 6525 7270 6563 7254 6784 7165 6892 6994 6846 6809 6794 6605 6667 6478 6435 6401 6302 6357 6208 6347 5992 6353 5848 6357 5786 6363 5720 6379 5464 6443 5299 6544 5186 6704 5128 6786 5110 6823 5060 6970 5036 7039 5014 7098 5010 7103 5005 7109 4366 7058 4281 7044L4247 7039 4254 6982C4274 6808 4341 6568 4407 6435 4508 6232 4671 6031 4816 5933 5018 5796 5322 5702 5665 5670 5954 5643 6062 5639 6212 5650 6498 5671 6850 5747 6993 5820 7185 5917 7378 6085 7465 6231 7624 6499 7677 6729 7645 7012 7609 7341 7532 7512 7336 7697 7204 7822 7059 7903 6896 7946 6864 7954 6762 7974 6671 7990 6408 8037 6122 8102 5880 8171 5450 8294 5279 8371 5222 8469 5199 8509 5195 8526 5195 8595 5195 8662 5200 8685 5223 8734 5260 8814 5308 8871 5384 8925 5467 8984 5515 9005 5641 9034 5821 9077 5918 9084 6050 9066 6219 9042 6377 9004 6447 8970 6562 8913 6659 8777 6730 8573L6762 8480 6834 8486C6873 8488 7044 8497 7214 8506 7385 8514 7525 8522 7527 8524 7535 8531 7509 8700 7489 8776 7388 9162 7098 9479 6726 9609 6596 9655 6433 9696 6290 9721 6125 9748 5777 9755 5610 9734Z"/><path d="M8260 7695 8260 5640 8675 5640 9090 5640 9092 6796 9095 7951 9702 6798 10309 5645 10724 5642 11140 5640 11140 7695 11140 9750 10725 9750 10310 9750 10308 8589 10305 7427 9695 8589 9085 9750 8673 9750 8260 9750 8260 7695Z"/><path d="M7 1264C3 1260 0 974 0 628L0 0 633 2C1187 5 1265 7 1265 20 1265 33 1189 35 653 38L40 40 38 652C35 1241 33 1289 7 1264Z"/><path d="M15357 1264C15353 1260 15350 983 15350 648L15350 40 14738 38C14201 35 14125 33 14125 20 14125 7 14203 5 14758 2L15390 0 15388 632C15385 1240 15383 1289 15357 1264Z"/></g></svg>